<mxfile host="app.diagrams.net" agent="Mozilla/5.0 (Windows NT 10.0; Win64; x64; rv:130.0) Gecko/20100101 Firefox/130.0" version="24.7.16">
  <diagram name="Page-1" id="ACIlkcH5CEUpx4nzuFwS">
    <mxGraphModel dx="2791" dy="1466" grid="0" gridSize="10" guides="1" tooltips="1" connect="1" arrows="1" fold="1" page="0" pageScale="1" pageWidth="850" pageHeight="1100" math="0" shadow="0">
      <root>
        <mxCell id="0" />
        <mxCell id="1" parent="0" />
        <mxCell id="MNbso9rwKvFQlWIEwlJG-6" style="edgeStyle=none;curved=1;rounded=0;orthogonalLoop=1;jettySize=auto;html=1;exitX=0.5;exitY=1;exitDx=0;exitDy=0;entryX=0.5;entryY=0;entryDx=0;entryDy=0;fontSize=12;startSize=8;endSize=8;" parent="1" source="MNbso9rwKvFQlWIEwlJG-1" target="MNbso9rwKvFQlWIEwlJG-3" edge="1">
          <mxGeometry relative="1" as="geometry" />
        </mxCell>
        <mxCell id="MNbso9rwKvFQlWIEwlJG-1" value="ESP32S" style="rounded=0;whiteSpace=wrap;html=1;" parent="1" vertex="1">
          <mxGeometry x="-110" y="-138" width="120" height="60" as="geometry" />
        </mxCell>
        <mxCell id="MNbso9rwKvFQlWIEwlJG-37" style="edgeStyle=none;curved=1;rounded=0;orthogonalLoop=1;jettySize=auto;html=1;exitX=0.5;exitY=1;exitDx=0;exitDy=0;entryX=0.5;entryY=0;entryDx=0;entryDy=0;fontSize=12;startSize=8;endSize=8;" parent="1" source="MNbso9rwKvFQlWIEwlJG-2" target="MNbso9rwKvFQlWIEwlJG-24" edge="1">
          <mxGeometry relative="1" as="geometry" />
        </mxCell>
        <mxCell id="MNbso9rwKvFQlWIEwlJG-2" value="WebSocket Server" style="rounded=0;whiteSpace=wrap;html=1;" parent="1" vertex="1">
          <mxGeometry x="304" y="-140" width="120" height="60" as="geometry" />
        </mxCell>
        <mxCell id="MNbso9rwKvFQlWIEwlJG-5" style="edgeStyle=none;curved=1;rounded=0;orthogonalLoop=1;jettySize=auto;html=1;exitX=0.5;exitY=1;exitDx=0;exitDy=0;entryX=0.5;entryY=0;entryDx=0;entryDy=0;fontSize=12;startSize=8;endSize=8;" parent="1" source="MNbso9rwKvFQlWIEwlJG-3" target="MNbso9rwKvFQlWIEwlJG-4" edge="1">
          <mxGeometry relative="1" as="geometry" />
        </mxCell>
        <mxCell id="MNbso9rwKvFQlWIEwlJG-3" value="Initialize Variables" style="rounded=1;whiteSpace=wrap;html=1;" parent="1" vertex="1">
          <mxGeometry x="-110" y="-8" width="120" height="60" as="geometry" />
        </mxCell>
        <mxCell id="MNbso9rwKvFQlWIEwlJG-8" style="edgeStyle=none;curved=1;rounded=0;orthogonalLoop=1;jettySize=auto;html=1;exitX=0.5;exitY=1;exitDx=0;exitDy=0;entryX=0.5;entryY=0;entryDx=0;entryDy=0;fontSize=12;startSize=8;endSize=8;" parent="1" source="MNbso9rwKvFQlWIEwlJG-4" target="MNbso9rwKvFQlWIEwlJG-7" edge="1">
          <mxGeometry relative="1" as="geometry" />
        </mxCell>
        <mxCell id="MNbso9rwKvFQlWIEwlJG-4" value="setup()" style="rounded=1;whiteSpace=wrap;html=1;" parent="1" vertex="1">
          <mxGeometry x="-110" y="122" width="120" height="60" as="geometry" />
        </mxCell>
        <mxCell id="MNbso9rwKvFQlWIEwlJG-10" style="edgeStyle=none;curved=1;rounded=0;orthogonalLoop=1;jettySize=auto;html=1;exitX=0.5;exitY=1;exitDx=0;exitDy=0;entryX=0.5;entryY=0;entryDx=0;entryDy=0;fontSize=12;startSize=8;endSize=8;" parent="1" source="MNbso9rwKvFQlWIEwlJG-7" target="MNbso9rwKvFQlWIEwlJG-9" edge="1">
          <mxGeometry relative="1" as="geometry" />
        </mxCell>
        <mxCell id="MNbso9rwKvFQlWIEwlJG-12" value="Success" style="edgeLabel;html=1;align=center;verticalAlign=middle;resizable=0;points=[];fontSize=12;" parent="MNbso9rwKvFQlWIEwlJG-10" vertex="1" connectable="0">
          <mxGeometry x="-0.0526" y="-3" relative="1" as="geometry">
            <mxPoint x="5" y="-6" as="offset" />
          </mxGeometry>
        </mxCell>
        <mxCell id="MNbso9rwKvFQlWIEwlJG-7" value="Wifi.begin()" style="rounded=1;whiteSpace=wrap;html=1;" parent="1" vertex="1">
          <mxGeometry x="-110" y="252" width="120" height="60" as="geometry" />
        </mxCell>
        <mxCell id="MNbso9rwKvFQlWIEwlJG-33" style="edgeStyle=none;curved=1;rounded=0;orthogonalLoop=1;jettySize=auto;html=1;exitX=1;exitY=0.25;exitDx=0;exitDy=0;entryX=0;entryY=0.25;entryDx=0;entryDy=0;fontSize=12;startSize=8;endSize=8;" parent="1" source="MNbso9rwKvFQlWIEwlJG-9" target="MNbso9rwKvFQlWIEwlJG-24" edge="1">
          <mxGeometry relative="1" as="geometry" />
        </mxCell>
        <mxCell id="MNbso9rwKvFQlWIEwlJG-34" value="Ping for Connection" style="edgeLabel;html=1;align=center;verticalAlign=middle;resizable=0;points=[];fontSize=12;" parent="MNbso9rwKvFQlWIEwlJG-33" vertex="1" connectable="0">
          <mxGeometry x="-0.0075" y="2" relative="1" as="geometry">
            <mxPoint x="-74" y="2" as="offset" />
          </mxGeometry>
        </mxCell>
        <mxCell id="MNbso9rwKvFQlWIEwlJG-47" style="edgeStyle=none;curved=1;rounded=0;orthogonalLoop=1;jettySize=auto;html=1;exitX=0.5;exitY=1;exitDx=0;exitDy=0;entryX=0.5;entryY=0;entryDx=0;entryDy=0;fontSize=12;startSize=8;endSize=8;" parent="1" source="MNbso9rwKvFQlWIEwlJG-9" target="ZduwcfP5pP9rwyrd3XXB-12" edge="1">
          <mxGeometry relative="1" as="geometry" />
        </mxCell>
        <mxCell id="MNbso9rwKvFQlWIEwlJG-56" style="edgeStyle=none;curved=1;rounded=0;orthogonalLoop=1;jettySize=auto;html=1;exitX=1;exitY=0.5;exitDx=0;exitDy=0;entryX=0;entryY=0.5;entryDx=0;entryDy=0;fontSize=12;startSize=8;endSize=8;" parent="1" source="MNbso9rwKvFQlWIEwlJG-9" target="MNbso9rwKvFQlWIEwlJG-24" edge="1">
          <mxGeometry relative="1" as="geometry" />
        </mxCell>
        <mxCell id="MNbso9rwKvFQlWIEwlJG-57" value="Statuses" style="edgeLabel;html=1;align=center;verticalAlign=middle;resizable=0;points=[];fontSize=12;" parent="MNbso9rwKvFQlWIEwlJG-56" vertex="1" connectable="0">
          <mxGeometry x="0.014" y="-1" relative="1" as="geometry">
            <mxPoint x="96" y="-1" as="offset" />
          </mxGeometry>
        </mxCell>
        <mxCell id="MNbso9rwKvFQlWIEwlJG-9" value="webSocketEvent()" style="rounded=1;whiteSpace=wrap;html=1;" parent="1" vertex="1">
          <mxGeometry x="-110" y="382" width="120" height="60" as="geometry" />
        </mxCell>
        <mxCell id="MNbso9rwKvFQlWIEwlJG-18" style="edgeStyle=none;curved=1;rounded=0;orthogonalLoop=1;jettySize=auto;html=1;exitX=0;exitY=0.75;exitDx=0;exitDy=0;entryX=0;entryY=0.25;entryDx=0;entryDy=0;fontSize=12;startSize=8;endSize=8;" parent="1" source="MNbso9rwKvFQlWIEwlJG-7" target="MNbso9rwKvFQlWIEwlJG-7" edge="1">
          <mxGeometry relative="1" as="geometry">
            <Array as="points">
              <mxPoint x="-182" y="282" />
            </Array>
          </mxGeometry>
        </mxCell>
        <mxCell id="MNbso9rwKvFQlWIEwlJG-20" value="Retry" style="edgeLabel;html=1;align=center;verticalAlign=middle;resizable=0;points=[];fontSize=12;" parent="MNbso9rwKvFQlWIEwlJG-18" vertex="1" connectable="0">
          <mxGeometry x="0.5243" y="-6" relative="1" as="geometry">
            <mxPoint x="-1" as="offset" />
          </mxGeometry>
        </mxCell>
        <mxCell id="MNbso9rwKvFQlWIEwlJG-43" style="edgeStyle=none;curved=1;rounded=0;orthogonalLoop=1;jettySize=auto;html=1;fontSize=12;startSize=8;endSize=8;exitX=0;exitY=0.75;exitDx=0;exitDy=0;entryX=1;entryY=0.75;entryDx=0;entryDy=0;" parent="1" source="MNbso9rwKvFQlWIEwlJG-24" target="MNbso9rwKvFQlWIEwlJG-46" edge="1">
          <mxGeometry relative="1" as="geometry">
            <mxPoint x="304" y="412" as="sourcePoint" />
            <mxPoint x="215" y="512" as="targetPoint" />
            <Array as="points">
              <mxPoint x="252" y="440" />
              <mxPoint x="246" y="473" />
              <mxPoint x="248" y="657" />
            </Array>
          </mxGeometry>
        </mxCell>
        <mxCell id="MNbso9rwKvFQlWIEwlJG-45" value="Robot Arm Path" style="edgeLabel;html=1;align=center;verticalAlign=middle;resizable=0;points=[];fontSize=12;" parent="MNbso9rwKvFQlWIEwlJG-43" vertex="1" connectable="0">
          <mxGeometry x="0.0147" y="1" relative="1" as="geometry">
            <mxPoint x="-3" y="-168" as="offset" />
          </mxGeometry>
        </mxCell>
        <mxCell id="MNbso9rwKvFQlWIEwlJG-72" style="edgeStyle=none;curved=1;rounded=0;orthogonalLoop=1;jettySize=auto;html=1;exitX=1;exitY=0.25;exitDx=0;exitDy=0;entryX=0;entryY=0.5;entryDx=0;entryDy=0;fontSize=12;startSize=8;endSize=8;" parent="1" source="MNbso9rwKvFQlWIEwlJG-24" target="MNbso9rwKvFQlWIEwlJG-70" edge="1">
          <mxGeometry relative="1" as="geometry">
            <Array as="points">
              <mxPoint x="472" y="393" />
              <mxPoint x="462" y="293" />
            </Array>
          </mxGeometry>
        </mxCell>
        <mxCell id="MNbso9rwKvFQlWIEwlJG-74" value="Statuses" style="edgeLabel;html=1;align=center;verticalAlign=middle;resizable=0;points=[];fontSize=12;" parent="MNbso9rwKvFQlWIEwlJG-72" vertex="1" connectable="0">
          <mxGeometry x="-0.0419" y="1" relative="1" as="geometry">
            <mxPoint as="offset" />
          </mxGeometry>
        </mxCell>
        <mxCell id="ZduwcfP5pP9rwyrd3XXB-7" style="edgeStyle=orthogonalEdgeStyle;rounded=0;orthogonalLoop=1;jettySize=auto;html=1;exitX=0.75;exitY=1;exitDx=0;exitDy=0;entryX=0.75;entryY=0;entryDx=0;entryDy=0;" edge="1" parent="1" source="MNbso9rwKvFQlWIEwlJG-24" target="ZduwcfP5pP9rwyrd3XXB-2">
          <mxGeometry relative="1" as="geometry" />
        </mxCell>
        <mxCell id="MNbso9rwKvFQlWIEwlJG-24" value="Connection" style="rounded=1;whiteSpace=wrap;html=1;" parent="1" vertex="1">
          <mxGeometry x="304" y="382" width="120" height="60" as="geometry" />
        </mxCell>
        <mxCell id="MNbso9rwKvFQlWIEwlJG-60" style="edgeStyle=none;curved=1;rounded=0;orthogonalLoop=1;jettySize=auto;html=1;exitX=0.5;exitY=1;exitDx=0;exitDy=0;entryX=0.5;entryY=0;entryDx=0;entryDy=0;fontSize=12;startSize=8;endSize=8;" parent="1" source="MNbso9rwKvFQlWIEwlJG-39" target="MNbso9rwKvFQlWIEwlJG-42" edge="1">
          <mxGeometry relative="1" as="geometry" />
        </mxCell>
        <mxCell id="MNbso9rwKvFQlWIEwlJG-39" value="Client&amp;nbsp; Interface" style="rounded=0;whiteSpace=wrap;html=1;" parent="1" vertex="1">
          <mxGeometry x="511" y="-140" width="120" height="60" as="geometry" />
        </mxCell>
        <mxCell id="MNbso9rwKvFQlWIEwlJG-54" style="edgeStyle=none;curved=1;rounded=0;orthogonalLoop=1;jettySize=auto;html=1;exitX=0;exitY=0.5;exitDx=0;exitDy=0;entryX=0.75;entryY=0;entryDx=0;entryDy=0;fontSize=12;startSize=8;endSize=8;" parent="1" source="MNbso9rwKvFQlWIEwlJG-42" target="MNbso9rwKvFQlWIEwlJG-24" edge="1">
          <mxGeometry relative="1" as="geometry">
            <Array as="points">
              <mxPoint x="384" y="158" />
            </Array>
          </mxGeometry>
        </mxCell>
        <mxCell id="MNbso9rwKvFQlWIEwlJG-55" value="&lt;div&gt;Ping for&lt;/div&gt;&lt;div&gt;Connection&lt;br&gt;&lt;/div&gt;" style="edgeLabel;html=1;align=center;verticalAlign=middle;resizable=0;points=[];fontSize=12;" parent="MNbso9rwKvFQlWIEwlJG-54" vertex="1" connectable="0">
          <mxGeometry x="0.2547" y="17" relative="1" as="geometry">
            <mxPoint as="offset" />
          </mxGeometry>
        </mxCell>
        <mxCell id="MNbso9rwKvFQlWIEwlJG-42" value="&amp;nbsp;ws.onopen()" style="rounded=1;whiteSpace=wrap;html=1;" parent="1" vertex="1">
          <mxGeometry x="511" y="122" width="120" height="60" as="geometry" />
        </mxCell>
        <mxCell id="MNbso9rwKvFQlWIEwlJG-50" style="edgeStyle=none;curved=1;rounded=0;orthogonalLoop=1;jettySize=auto;html=1;exitX=0;exitY=0.5;exitDx=0;exitDy=0;entryX=1;entryY=0.5;entryDx=0;entryDy=0;fontSize=12;startSize=8;endSize=8;" parent="1" source="MNbso9rwKvFQlWIEwlJG-46" target="MNbso9rwKvFQlWIEwlJG-49" edge="1">
          <mxGeometry relative="1" as="geometry" />
        </mxCell>
        <mxCell id="ZduwcfP5pP9rwyrd3XXB-10" value="Asynchronous" style="edgeLabel;html=1;align=center;verticalAlign=middle;resizable=0;points=[];" vertex="1" connectable="0" parent="MNbso9rwKvFQlWIEwlJG-50">
          <mxGeometry x="0.0513" y="-2" relative="1" as="geometry">
            <mxPoint x="8" as="offset" />
          </mxGeometry>
        </mxCell>
        <mxCell id="MNbso9rwKvFQlWIEwlJG-51" style="edgeStyle=none;curved=1;rounded=0;orthogonalLoop=1;jettySize=auto;html=1;exitX=0;exitY=1;exitDx=0;exitDy=0;entryX=1;entryY=0;entryDx=0;entryDy=0;fontSize=12;startSize=8;endSize=8;" parent="1" source="MNbso9rwKvFQlWIEwlJG-46" target="MNbso9rwKvFQlWIEwlJG-48" edge="1">
          <mxGeometry relative="1" as="geometry" />
        </mxCell>
        <mxCell id="MNbso9rwKvFQlWIEwlJG-53" style="edgeStyle=none;curved=1;rounded=0;orthogonalLoop=1;jettySize=auto;html=1;exitX=0.5;exitY=1;exitDx=0;exitDy=0;entryX=0.5;entryY=0;entryDx=0;entryDy=0;fontSize=12;startSize=8;endSize=8;" parent="1" source="MNbso9rwKvFQlWIEwlJG-46" target="MNbso9rwKvFQlWIEwlJG-52" edge="1">
          <mxGeometry relative="1" as="geometry" />
        </mxCell>
        <mxCell id="MNbso9rwKvFQlWIEwlJG-46" value="CommandQueue" style="rounded=1;whiteSpace=wrap;html=1;" parent="1" vertex="1">
          <mxGeometry x="-110" y="591" width="120" height="60" as="geometry" />
        </mxCell>
        <mxCell id="MNbso9rwKvFQlWIEwlJG-48" value="updateServoNonBlocking()" style="rounded=1;whiteSpace=wrap;html=1;" parent="1" vertex="1">
          <mxGeometry x="-399" y="721" width="186" height="60" as="geometry" />
        </mxCell>
        <mxCell id="MNbso9rwKvFQlWIEwlJG-49" value="updateStepperNonBlocking()" style="rounded=1;whiteSpace=wrap;html=1;" parent="1" vertex="1">
          <mxGeometry x="-397" y="591" width="184" height="60" as="geometry" />
        </mxCell>
        <mxCell id="MNbso9rwKvFQlWIEwlJG-52" value="movePen()" style="rounded=1;whiteSpace=wrap;html=1;" parent="1" vertex="1">
          <mxGeometry x="-110" y="721" width="120" height="60" as="geometry" />
        </mxCell>
        <mxCell id="MNbso9rwKvFQlWIEwlJG-67" style="edgeStyle=none;curved=1;rounded=0;orthogonalLoop=1;jettySize=auto;html=1;exitX=0;exitY=0.75;exitDx=0;exitDy=0;fontSize=12;startSize=8;endSize=8;" parent="1" source="ZduwcfP5pP9rwyrd3XXB-3" edge="1">
          <mxGeometry relative="1" as="geometry">
            <mxPoint x="550" y="427" as="targetPoint" />
          </mxGeometry>
        </mxCell>
        <mxCell id="MNbso9rwKvFQlWIEwlJG-62" value="optimize()" style="rounded=1;whiteSpace=wrap;html=1;" parent="1" vertex="1">
          <mxGeometry x="718" y="382" width="120" height="60" as="geometry" />
        </mxCell>
        <mxCell id="MNbso9rwKvFQlWIEwlJG-63" style="edgeStyle=none;curved=1;rounded=0;orthogonalLoop=1;jettySize=auto;html=1;exitX=0.5;exitY=1;exitDx=0;exitDy=0;entryX=1;entryY=0.25;entryDx=0;entryDy=0;fontSize=12;startSize=8;endSize=8;" parent="1" source="MNbso9rwKvFQlWIEwlJG-64" target="MNbso9rwKvFQlWIEwlJG-70" edge="1">
          <mxGeometry relative="1" as="geometry">
            <mxPoint x="631" y="407" as="targetPoint" />
            <Array as="points">
              <mxPoint x="722" y="276" />
            </Array>
          </mxGeometry>
        </mxCell>
        <mxCell id="MNbso9rwKvFQlWIEwlJG-64" value="User&amp;nbsp; Input" style="ellipse;whiteSpace=wrap;html=1;" parent="1" vertex="1">
          <mxGeometry x="661" y="169" width="120" height="58" as="geometry" />
        </mxCell>
        <mxCell id="MNbso9rwKvFQlWIEwlJG-71" style="edgeStyle=none;curved=1;rounded=0;orthogonalLoop=1;jettySize=auto;html=1;exitX=1;exitY=0.75;exitDx=0;exitDy=0;entryX=0.5;entryY=0;entryDx=0;entryDy=0;fontSize=12;startSize=8;endSize=8;" parent="1" source="MNbso9rwKvFQlWIEwlJG-70" target="MNbso9rwKvFQlWIEwlJG-62" edge="1">
          <mxGeometry relative="1" as="geometry">
            <Array as="points">
              <mxPoint x="732" y="312" />
            </Array>
          </mxGeometry>
        </mxCell>
        <mxCell id="MNbso9rwKvFQlWIEwlJG-75" value="&lt;div&gt;User&amp;nbsp;&lt;/div&gt;&lt;div&gt;Input&lt;/div&gt;" style="edgeLabel;html=1;align=center;verticalAlign=middle;resizable=0;points=[];fontSize=12;" parent="MNbso9rwKvFQlWIEwlJG-71" vertex="1" connectable="0">
          <mxGeometry x="-0.2932" y="-2" relative="1" as="geometry">
            <mxPoint x="-2" y="3" as="offset" />
          </mxGeometry>
        </mxCell>
        <mxCell id="MNbso9rwKvFQlWIEwlJG-70" value="User&amp;nbsp; Interface" style="rounded=1;whiteSpace=wrap;html=1;" parent="1" vertex="1">
          <mxGeometry x="511" y="252" width="120" height="60" as="geometry" />
        </mxCell>
        <mxCell id="ZduwcfP5pP9rwyrd3XXB-8" style="edgeStyle=orthogonalEdgeStyle;rounded=0;orthogonalLoop=1;jettySize=auto;html=1;exitX=0.25;exitY=0;exitDx=0;exitDy=0;entryX=0.25;entryY=1;entryDx=0;entryDy=0;" edge="1" parent="1" source="ZduwcfP5pP9rwyrd3XXB-2" target="MNbso9rwKvFQlWIEwlJG-24">
          <mxGeometry relative="1" as="geometry" />
        </mxCell>
        <mxCell id="ZduwcfP5pP9rwyrd3XXB-2" value="calculateAngles()" style="rounded=1;whiteSpace=wrap;html=1;" vertex="1" parent="1">
          <mxGeometry x="304" y="537" width="120" height="60" as="geometry" />
        </mxCell>
        <mxCell id="ZduwcfP5pP9rwyrd3XXB-4" value="" style="edgeStyle=none;curved=1;rounded=0;orthogonalLoop=1;jettySize=auto;html=1;exitX=0;exitY=0.5;exitDx=0;exitDy=0;fontSize=12;startSize=8;endSize=8;" edge="1" parent="1" source="MNbso9rwKvFQlWIEwlJG-62" target="ZduwcfP5pP9rwyrd3XXB-3">
          <mxGeometry relative="1" as="geometry">
            <mxPoint x="788" y="439" as="sourcePoint" />
            <mxPoint x="550" y="427" as="targetPoint" />
          </mxGeometry>
        </mxCell>
        <mxCell id="ZduwcfP5pP9rwyrd3XXB-6" style="edgeStyle=orthogonalEdgeStyle;rounded=0;orthogonalLoop=1;jettySize=auto;html=1;exitX=0;exitY=0.5;exitDx=0;exitDy=0;entryX=1;entryY=0.5;entryDx=0;entryDy=0;" edge="1" parent="1" source="ZduwcfP5pP9rwyrd3XXB-3" target="MNbso9rwKvFQlWIEwlJG-24">
          <mxGeometry relative="1" as="geometry" />
        </mxCell>
        <mxCell id="ZduwcfP5pP9rwyrd3XXB-3" value="&amp;nbsp;socket.send()" style="rounded=1;whiteSpace=wrap;html=1;" vertex="1" parent="1">
          <mxGeometry x="511" y="382" width="120" height="60" as="geometry" />
        </mxCell>
        <mxCell id="ZduwcfP5pP9rwyrd3XXB-11" value="Asynchronous" style="edgeLabel;html=1;align=center;verticalAlign=middle;resizable=0;points=[];" vertex="1" connectable="0" parent="1">
          <mxGeometry x="-161.99571428571423" y="680.0000000000002" as="geometry" />
        </mxCell>
        <mxCell id="ZduwcfP5pP9rwyrd3XXB-15" style="edgeStyle=orthogonalEdgeStyle;rounded=0;orthogonalLoop=1;jettySize=auto;html=1;exitX=1;exitY=0.25;exitDx=0;exitDy=0;entryX=0.5;entryY=0;entryDx=0;entryDy=0;" edge="1" parent="1" source="ZduwcfP5pP9rwyrd3XXB-12" target="ZduwcfP5pP9rwyrd3XXB-14">
          <mxGeometry relative="1" as="geometry" />
        </mxCell>
        <mxCell id="ZduwcfP5pP9rwyrd3XXB-12" value="loop()" style="rounded=1;whiteSpace=wrap;html=1;" vertex="1" parent="1">
          <mxGeometry x="-110" y="481" width="120" height="60" as="geometry" />
        </mxCell>
        <mxCell id="ZduwcfP5pP9rwyrd3XXB-16" style="edgeStyle=orthogonalEdgeStyle;rounded=0;orthogonalLoop=1;jettySize=auto;html=1;exitX=0.5;exitY=1;exitDx=0;exitDy=0;entryX=1;entryY=0.25;entryDx=0;entryDy=0;" edge="1" parent="1" source="ZduwcfP5pP9rwyrd3XXB-14" target="MNbso9rwKvFQlWIEwlJG-46">
          <mxGeometry relative="1" as="geometry" />
        </mxCell>
        <mxCell id="ZduwcfP5pP9rwyrd3XXB-14" value="checkMovementCompletion()" style="rounded=1;whiteSpace=wrap;html=1;" vertex="1" parent="1">
          <mxGeometry x="39" y="516" width="180" height="60" as="geometry" />
        </mxCell>
      </root>
    </mxGraphModel>
  </diagram>
</mxfile>
